<?xml version="1.0" encoding="UTF-8" standalone="no"?>
<svg
   xmlns:dc="http://purl.org/dc/elements/1.1/"
   xmlns:cc="http://creativecommons.org/ns#"
   xmlns:rdf="http://www.w3.org/1999/02/22-rdf-syntax-ns#"
   xmlns:svg="http://www.w3.org/2000/svg"
   xmlns="http://www.w3.org/2000/svg"
   id="svg113"
   version="1.1"
   viewBox="0 0 0 0"
   height="64"
   width="64">
  <defs
     id="defs107" />
  <metadata
     id="metadata110">
    <rdf:RDF>
      <cc:Work
         rdf:about="">
        <dc:format>image/svg+xml</dc:format>
        <dc:type
           rdf:resource="http://purl.org/dc/dcmitype/StillImage" />
        <dc:title></dc:title>
      </cc:Work>
    </rdf:RDF>
  </metadata>
  <g
     id="g161"
     transform="matrix(1.5226756,0,0,1.5255928,-108.43844,-190.47792)">
    <circle
       r="20.838961"
       cy="145.80952"
       cx="92.226189"
       id="path4232-2-2"
       style="fill:#ffffff;fill-opacity:0;fill-rule:evenodd;stroke:#2287b0;stroke-width:0.33782002;stroke-linecap:round;stroke-linejoin:bevel;stroke-miterlimit:4;stroke-dasharray:none;stroke-dashoffset:0;stroke-opacity:1" />
    <g
       transform="matrix(0.28222223,0,0,0.28222223,27.04254,104.2042)"
       id="g4218-3-4">
      <path
         style="fill:none;fill-rule:evenodd;stroke:#000000;stroke-width:1px;stroke-linecap:butt;stroke-linejoin:miter;stroke-opacity:1"
         d="m 221.07143,173.07649 c 0,0 10.27413,-0.61591 15.02232,-2.39543 4.2653,-1.59855 11.58482,-7.24743 11.58482,-7.24743 0,0 15.45106,4.0097 22.9546,6.69816 9.47433,3.39458 27.75969,11.87327 27.75969,11.87327"
         id="path4175-7-5" />
      <path
         style="fill:none;fill-rule:evenodd;stroke:#000000;stroke-width:1px;stroke-linecap:butt;stroke-linejoin:miter;stroke-opacity:1"
         d="M 210.35714,88.969346 199.46429,179.8622 v 0 0"
         id="path4177-0-1" />
      <path
         style="fill:none;fill-rule:evenodd;stroke:#000000;stroke-width:1px;stroke-linecap:butt;stroke-linejoin:miter;stroke-opacity:1"
         d="m 208.75,103.79077 -3.92857,-0.35714 c -3.17398,-18.886039 6.94694,-33.379271 10,-16.785713"
         id="path4179-0-7" />
      <path
         style="fill:none;fill-rule:evenodd;stroke:#000000;stroke-width:1px;stroke-linecap:butt;stroke-linejoin:miter;stroke-opacity:1"
         d="m 193.21429,168.07649 c 0,0 -4.92856,1.24979 -7.32143,0.71428 -3.51654,-0.78698 -5.81159,-4.57873 -9.28572,-5.53571 -4.24659,-1.16976 -13.21428,0 -13.21428,0"
         id="path4181-3-5" />
      <path
         style="fill:none;fill-rule:evenodd;stroke:#000000;stroke-width:1px;stroke-linecap:butt;stroke-linejoin:miter;stroke-opacity:1"
         d="m 176.25,163.25506 6.8031,-2.3725 16.76833,-0.84179"
         id="path4183-4-7" />
      <path
         style="fill:none;fill-rule:evenodd;stroke:#000000;stroke-width:1px;stroke-linecap:butt;stroke-linejoin:miter;stroke-opacity:1"
         d="m 208.39286,174.14792 4.64285,-1.25 4.46429,3.57143 h 12.14286 l 0.71428,5.71428 1.78572,1.42857 15.71428,-0.53571 7.32143,-2.5 11.78572,-1.42857 3.57142,1.07143"
         id="path4185-9-1" />
      <path
         style="fill:none;fill-rule:evenodd;stroke:#000000;stroke-width:1px;stroke-linecap:butt;stroke-linejoin:miter;stroke-opacity:1"
         d="m 207.5,144.8622 3.21429,3.39286 3.57142,3.92857 1.25,3.21429 v 3.39285 l -0.89285,2.67858 0.89285,5.17857 1.07143,2.67857 4.64286,0.71428 5.89286,-1.96428 5.17857,-4.10714 3.21428,-3.03572 v -3.75 l -1.25,-5 -3.21428,-3.39286 -3.75,-1.78571 -2.77235,-3.84564 -1.46464,-6.27873 -1.58376,1.00268 -0.42925,5.9074 -1.96429,4.64286 H 213.75 l -2.67857,-2.85714 -1.25,-2.32143 z"
         id="path4187-2-6" />
      <path
         style="fill:none;fill-rule:evenodd;stroke:#000000;stroke-width:1px;stroke-linecap:butt;stroke-linejoin:miter;stroke-opacity:1"
         d="m 198.92857,179.32649 -4.28571,6.96428 -6.43827,1.11253 -1.20231,1.16609 25.05789,0.55726 -0.9908,-1.2293 -6.11797,-1.25389 -10.27154,-0.2755 10.32014,0.27996 -1.25,-4.64286 z"
         id="path4189-7-9" />
      <path
         style="fill:none;fill-rule:evenodd;stroke:#000000;stroke-width:1px;stroke-linecap:butt;stroke-linejoin:miter;stroke-opacity:1"
         d="m 219.64286,139.8622 -1.78572,4.64286 h -4.82143 l -3.21428,-4.64286 v -3.03571 -3.03572 l 1.78571,-2.14285 1.60715,-0.71429 2.85714,0.89286 2.5,0.71428 1.78571,2.5 -2.5,1.42858 -5,1.96428 -3.21428,0.35714"
         id="path4191-4-8" />
      <path
         style="fill:none;fill-rule:evenodd;stroke:#000000;stroke-width:1px;stroke-linecap:butt;stroke-linejoin:miter;stroke-opacity:1"
         d="m 208.39286,123.79077 3.92857,1.96429 7.14286,1.42857 7.32142,1.25 3.75,2.14286 1.42858,2.85714 0.17857,4.64286 v 0.71428 l -4.28572,0.35715 -3.03571,-2.14286 -2.67857,-3.39286 -4.82143,-3.21428 -4.64286,-2.14286 -5,0.71429 -2.14286,1.25 h -1.60714 l -0.35714,-1.25 0.71428,-2.5 -0.71428,-1.42858 0.71428,-2.14285 z"
         id="path4193-2-1" />
      <path
         style="fill:none;fill-rule:evenodd;stroke:#000000;stroke-width:1px;stroke-linecap:butt;stroke-linejoin:miter;stroke-opacity:1"
         d="m 210.71429,152.3622 v 4.82143 l -0.53572,6.42857 -1.42857,4.46429 -4.46429,2.85714 -2.67857,1.25 -2.32143,-1.07143 0.22322,-2.90179 1.5625,-2.09821 0.49107,-3.21428 1.875,-16.87501 3.79464,-1.07142 3.48215,-3.21428"
         id="path4195-5-33" />
      <path
         style="fill:none;fill-rule:evenodd;stroke:#000000;stroke-width:1px;stroke-linecap:butt;stroke-linejoin:miter;stroke-opacity:1"
         d="m 170.2107,156.86197 c 7.45518,-1.69502 14.12662,-2.42125 17.5514,-0.75761 v 0 0"
         id="path4197-2-3" />
    </g>
  </g>
</svg>
